<svg width="180" height="180" xmlns="http://www.w3.org/2000/svg"><g fill="#FFF" fill-rule="evenodd"><path d="M89.9 37.2c-18.6 0-33.63 14.72-33.63 32.86 0 16.9 11.93 27.44 14.26 36.27.46 1.55 2.32 3.72 3.87 3.72h31c1.7 0 3.56-2.17 3.88-3.72 2.32-8.83 14.26-19.37 14.26-36.27 0-18.13-15.04-32.86-33.64-32.86zM103.85 113.15H75.8c-1.7 0-2.95 1.55-2.95 3.1s1.24 3.1 2.95 3.1h28.05c1.7 0 3.1-1.55 3.1-3.1s-1.4-3.1-3.1-3.1zM102.45 122.45H76.72c-1.7 0-2.94 1.24-2.94 2.94 0 1.55 2.02 3.25 3.72 3.25h24.8c1.7 0 3.1-1.7 3.1-3.26 0-1.7-1.4-2.95-2.95-2.95zM89.28 142.6c6.5 0 12.1-5.42 14.57-10.85H74.4c2.48 5.42 8.37 10.85 14.88 10.85z"/></g></svg>