<svg width="180" height="180" xmlns="http://www.w3.org/2000/svg"><g fill="#FFF" fill-rule="evenodd"><path d="M127.1 139.7c0 4.45-2.74 8.06-7.2 8.06-4.45 0-6.54-3.6-6.54-8.07v-35.85h13.74v35.84zM108.7 58.9c0-18.8 8.97-29.45 15.3-29.45 3.1 0 3.1 1.6 3.1 4.65v65h-13.68c-2.6 0-4.7-2.1-4.7-4.7V58.9zM82.15 66.65V35.4c0-1.7-1.4-3.1-3.1-3.1-1.7 0-3.1 1.4-3.1 3.1v31.25H68.2V35.4c0-1.7-1.4-3.1-3.1-3.1-1.7 0-3.1 1.4-3.1 3.1v31.25h-7.75V35.4c0-1.7-1.4-3.1-3.1-3.1-1.7 0-3.1 1.4-3.1 3.1v31.25c0 7.16 4.43 12.93 9.3 12.93V140c0 4.3 3.47 7.76 7.75 7.76 4.28 0 7.75-3.47 7.75-7.75V79.6c4.87 0 9.3-5.77 9.3-12.93z"/></g></svg>