<svg width="180" height="180" xmlns="http://www.w3.org/2000/svg" style="background:#14233C;"><g fill="none" fill-rule="evenodd"><path d="M156 117.7c0 1.6-.5 3.2-1.7 4.3l-27 27c-1.5 1.6-4 .5-4-1.6V86.7l32.4-32.5h.4v63.5z" fill="#E64B5F"/><path d="M134.5 32.6c-1-1-2.4-1-3.4 0L91 73h-.6v45.4l.6 1.2 32.2-32.4 33-33-21.7-21.6z" fill="#EBD19F"/><path d="M25.8 117.7c0 1.6.6 3.2 1.8 4.3l27 27c1.5 1.6 4 .5 4-1.6V86.7L26.3 54.2h-.4v63.5z" fill="#1E788C"/><path d="M50.8 32.6c-1-1-2.5-1-3.4 0L25.8 54.2l33 33L91 119.6V73L50.8 32.5z" fill="#9ABDA9"/></g></svg>
