<svg width="180" height="180" xmlns="http://www.w3.org/2000/svg"><path d="M152.7 76.7c0-10.5-13.2-4-13.2-4-1-3-2.8-9.2-6-17.2-2.7-6.2-5.8-13.6-17.3-13.6H63.5C52 42 49 49 46.3 55.4c-3.2 8-5 14.3-6 17.3 0 0-13.2-6.6-13.2 4 0 3.6 8.5 5.2 13 5.7C39 86 37.3 90 37.3 93v37.2c0 3 3.4 6.2 6.2 6.2h17c2.8 0 4.7-3 4.7-6.2V121h49.7v9.2c0 3 2 6.2 4.6 6.2h17c3 0 6.3-3 6.3-6.2V93c0-3-2-7-3-10.5 4.7-.5 13-2 13-5.8zM66.5 103H52c-1.3 0-3-1.8-3-3v-4.4c0-3.4 4.2-5.7 7.3-4.3L68 98.6c2.5 1 1.3 4.3-1.5 4.3zm64.3-3c0 1.2-1.7 3-3 3h-14.5c-2.8 0-4-3.3-1.4-4.4l11.5-7.3c3-1.2 7.3 1 7.3 4.3v4.4zm-41-21c-14.3 0-29-2.7-40.8-5.2 1.4-4 4.2-10.7 6-14.7 2.2-5.4 4-9.4 8.5-9.4h52.7c4.6 0 6.3 4 8.6 9.5l5.8 14.8c-12 2.5-26.5 5-41 5.3z" fill="#FFF" fill-rule="evenodd"/></svg>