<?xml version="1.0" encoding="UTF-8"?>
<svg width="180px" height="180px" viewBox="0 0 180 180" version="1.1" xmlns="http://www.w3.org/2000/svg" xmlns:xlink="http://www.w3.org/1999/xlink" style="background: #50B9DC;">
    <!-- Generator: Sketch 41.2 (35397) - http://www.bohemiancoding.com/sketch -->
    <title>cat-bills-huge@3x</title>
    <desc>Created with Sketch.</desc>
    <defs></defs>
    <g id="Assets" stroke="none" stroke-width="1" fill="none" fill-rule="evenodd">
        <g id="-Category-assets-spotlight" transform="translate(-2635.000000, -310.000000)" fill="#FFFFFF">
            <g id="Category-Icon_Bills-116px" transform="translate(2635.000000, 310.000000)">
                <g id="Layer_1_13_">
                    <g id="Group">
                        <g transform="translate(55.800000, 37.200000)" id="Shape">
                            <path d="M34.1,0 C15.5,0 0.465,14.725 0.465,32.86 C0.465,49.755 12.4,60.295 14.725,69.13 C15.19,70.68 17.05,72.85 18.6,72.85 L32.55,72.85 L37.2,72.85 L49.6,72.85 C51.305,72.85 53.165,70.68 53.475,69.13 C55.8,60.295 67.735,49.755 67.735,32.86 C67.735,14.725 52.7,0 34.1,0 L34.1,0 Z"></path>
                            <path d="M48.05,75.95 L19.995,75.95 C18.29,75.95 17.05,77.5 17.05,79.05 C17.05,80.6 18.29,82.15 19.995,82.15 L48.05,82.15 C49.755,82.15 51.15,80.6 51.15,79.05 C51.15,77.5 49.755,75.95 48.05,75.95 L48.05,75.95 Z"></path>
                            <path d="M46.655,85.25 L20.925,85.25 C19.22,85.25 17.98,86.49 17.98,88.195 C17.98,89.745 19.995,91.45 21.7,91.45 L46.5,91.45 C48.205,91.45 49.6,89.745 49.6,88.195 C49.6,86.49 48.205,85.25 46.655,85.25 L46.655,85.25 Z"></path>
                            <path d="M33.48,105.4 C39.99,105.4 45.57,99.975 48.05,94.55 L18.6,94.55 C21.08,99.975 26.97,105.4 33.48,105.4 L33.48,105.4 Z"></path>
                        </g>
                    </g>
                </g>
            </g>
        </g>
    </g>
</svg>