<?xml version="1.0" encoding="UTF-8"?>
<svg width="180px" height="180px" viewBox="0 0 180 180" version="1.1" xmlns="http://www.w3.org/2000/svg" xmlns:xlink="http://www.w3.org/1999/xlink" style="background: #9ABBA8;">
    <!-- Generator: Sketch 41.2 (35397) - http://www.bohemiancoding.com/sketch -->
    <title>cat-cash-huge@3x</title>
    <desc>Created with Sketch.</desc>
    <defs></defs>
    <g id="Assets" stroke="none" stroke-width="1" fill="none" fill-rule="evenodd">
        <g id="-Category-assets-spotlight" transform="translate(-2325.000000, -310.000000)" fill="#FFFFFF">
            <g id="Category-Icon_Cash-116px" transform="translate(2325.000000, 310.000000)">
                <g id="Layer_1_1_">
                    <g id="Group">
                        <g transform="translate(41.850000, 40.300000)" id="Shape">
                            <path d="M96.1,7.905 C96.1,3.565 92.535,0 88.195,0 L7.905,0 C3.565,0 0,3.565 0,7.905 C0,11.935 3.875,15.19 7.75,15.5 L7.75,99.2 L88.35,99.2 L88.35,15.5 C92.38,15.19 96.1,11.935 96.1,7.905 L96.1,7.905 Z M72.85,83.7 L23.25,83.7 L23.25,10.85 L72.85,10.85 L72.85,83.7 L72.85,83.7 Z M13.95,10.85 L20.15,10.85 L20.15,86.8 L75.95,86.8 L75.95,10.85 L82.15,10.85 L82.15,93 L13.95,93 L13.95,10.85 L13.95,10.85 Z"></path>
                            <path d="M41.075,59.675 C41.075,63.395 38.13,66.34 35.34,68.2 L38.44,73.005 C40.455,71.455 42.47,70.99 44.33,70.99 C46.655,70.99 47.895,71.455 49.445,72.075 C50.84,72.54 52.39,73.005 55.025,73.005 C57.66,73.005 60.605,72.075 62.93,69.75 L59.83,64.635 C57.97,66.65 56.73,66.805 55.335,66.805 C53.94,66.805 52.7,66.495 51.305,66.185 C49.91,65.875 48.67,65.565 47.275,65.565 C46.345,65.565 45.415,65.72 43.865,66.805 L43.71,66.65 C46.035,64.79 47.895,62.775 47.895,59.52 C47.895,58.435 47.74,57.35 47.43,56.42 L52.855,56.42 L52.855,52.08 L46.035,52.08 C44.02,48.36 43.865,47.12 43.865,45.57 C43.865,42.78 45.88,40.92 48.825,40.92 C54.095,40.92 54.25,45.725 54.405,47.74 L61.38,47.74 C61.38,39.525 56.73,35.03 48.98,35.03 C40.455,35.03 35.96,39.835 35.96,45.26 C35.96,48.205 37.2,50.995 38.285,52.235 L35.03,52.235 L35.03,56.575 L40.145,56.575 C40.61,57.35 41.075,58.435 41.075,59.675 L41.075,59.675 Z"></path>
                        </g>
                    </g>
                </g>
            </g>
        </g>
    </g>
</svg>