<?xml version="1.0" encoding="UTF-8"?>
<svg width="180px" height="180px" viewBox="0 0 180 180" version="1.1" xmlns="http://www.w3.org/2000/svg" xmlns:xlink="http://www.w3.org/1999/xlink" style="background: #E64B5F;">
    <!-- Generator: Sketch 41.2 (35397) - http://www.bohemiancoding.com/sketch -->
    <title>cat-eatingout-huge@2x</title>
    <desc>Created with Sketch.</desc>
    <defs></defs>
    <g id="Assets" stroke="none" stroke-width="1" fill="none" fill-rule="evenodd">
        <g id="-Category-assets-spotlight" transform="translate(-775.000000, -310.000000)" fill="#FFFFFF">
            <g id="Category-Icon_Eating-Out-116px" transform="translate(823.050000, 339.450000)">
                <g id="Group" transform="translate(0.000000, 0.000000)">
                    <g transform="translate(60.450000, 0.000000)" id="Shape">
                        <path d="M18.6,110.24065 C18.6,114.69845 15.86425,118.31305 11.40645,118.31305 C6.94865,118.31305 4.8577,114.69845 4.8577,110.24065 L4.8577,74.4 L18.6,74.4 L18.6,110.24065 L18.6,110.24065 Z"></path>
                        <path d="M0.2077,29.45 C0.2077,10.6454 9.17135,0 15.5,0 C18.6,0 18.6,1.61045 18.6,4.65 L18.6,69.66165 L4.91815,69.66165 C2.3157,69.66165 0.2077,67.5521 0.2077,64.9512 L0.2077,29.45 L0.2077,29.45 Z"></path>
                    </g>
                    <path d="M34.1,37.2 L34.1,37.2 L34.1,5.9644 C34.1,4.25165 32.71275,2.8644 31,2.8644 C29.28725,2.8644 27.9,4.25165 27.9,5.9644 L27.9,37.2 L20.15,37.2 L20.15,5.9644 C20.15,4.25165 18.76275,2.8644 17.05,2.8644 C15.33725,2.8644 13.95,4.25165 13.95,5.9644 L13.95,37.2 L6.2,37.2 L6.2,5.9644 C6.2,4.25165 4.81275,2.8644 3.1,2.8644 C1.38725,2.8644 0,4.25165 0,5.9644 L0,37.2 C0,44.35945 4.433,50.12545 9.3,50.12545 L9.3,110.56305 C9.3,114.8426 12.77045,118.31305 17.05,118.31305 C21.32955,118.31305 24.8,114.8426 24.8,110.56305 L24.8,50.12545 C29.667,50.12545 34.1,44.35945 34.1,37.2 L34.1,37.2 Z" id="Shape"></path>
                </g>
            </g>
        </g>
    </g>
</svg>