<?xml version="1.0" encoding="UTF-8"?>
<svg width="180px" height="180px" viewBox="0 0 180 180" version="1.1" xmlns="http://www.w3.org/2000/svg" xmlns:xlink="http://www.w3.org/1999/xlink" style="background: #EB824B;">
    <!-- Generator: Sketch 41.2 (35397) - http://www.bohemiancoding.com/sketch -->
    <title>cat-entertainment-huge@3x</title>
    <desc>Created with Sketch.</desc>
    <defs></defs>
    <g id="Assets" stroke="none" stroke-width="1" fill="none" fill-rule="evenodd">
        <g id="-Category-assets-spotlight" transform="translate(-2015.000000, -310.000000)" fill="#FFFFFF">
            <g id="Category-Icon_Entertainment-116px" transform="translate(2015.000000, 310.000000)">
                <g id="Layer_1_2_">
                    <g id="Group">
                        <path d="M89.9,37.2 C60.76,37.2 37.2,60.76 37.2,89.9 C37.2,119.04 60.76,142.6 89.9,142.6 C119.04,142.6 142.6,119.04 142.6,89.9 C142.6,60.76 119.04,37.2 89.9,37.2 L89.9,37.2 Z M69.13,68.51 C72.23,68.51 74.71,70.99 74.71,74.09 C74.71,77.19 72.23,79.67 69.13,79.67 C66.03,79.67 63.55,77.19 63.55,74.09 C63.55,70.99 66.03,68.51 69.13,68.51 L69.13,68.51 Z M89.435,123.535 C73.47,123.535 60.605,110.67 60.605,94.705 L118.265,94.705 C118.265,110.67 105.4,123.535 89.435,123.535 L89.435,123.535 Z M110.67,78.585 C107.57,78.585 105.09,76.105 105.09,73.005 C105.09,69.905 107.57,67.425 110.67,67.425 C113.77,67.425 116.25,69.905 116.25,73.005 C116.25,76.105 113.77,78.585 110.67,78.585 L110.67,78.585 Z" id="Shape"></path>
                    </g>
                </g>
            </g>
        </g>
    </g>
</svg>