<?xml version="1.0" encoding="UTF-8" standalone="no"?>
<!-- Created with Inkscape (http://www.inkscape.org/) -->

<svg
   xmlns:dc="http://purl.org/dc/elements/1.1/"
   xmlns:cc="http://creativecommons.org/ns#"
   xmlns:rdf="http://www.w3.org/1999/02/22-rdf-syntax-ns#"
   xmlns:svg="http://www.w3.org/2000/svg"
   xmlns="http://www.w3.org/2000/svg"
   xmlns:sodipodi="http://sodipodi.sourceforge.net/DTD/sodipodi-0.dtd"
   xmlns:inkscape="http://www.inkscape.org/namespaces/inkscape"
   width="70"
   height="70"
   viewBox="0 0 70.000001 70.000001"
   id="svg7362"
   version="1.1"
   inkscape:version="0.91 r"
   sodipodi:docname="entertainment.svg">
  <defs
     id="defs7364" />
  <sodipodi:namedview
     id="base"
     pagecolor="#ffffff"
     bordercolor="#666666"
     borderopacity="1.0"
     inkscape:pageopacity="0.0"
     inkscape:pageshadow="2"
     inkscape:zoom="2.8"
     inkscape:cx="-86.938672"
     inkscape:cy="20.028242"
     inkscape:document-units="px"
     inkscape:current-layer="layer1"
     showgrid="false"
     units="px"
     inkscape:window-width="3070"
     inkscape:window-height="1752"
     inkscape:window-x="130"
     inkscape:window-y="48"
     inkscape:window-maximized="1" />
  <metadata
     id="metadata7367">
    <rdf:RDF>
      <cc:Work
         rdf:about="">
        <dc:format>image/svg+xml</dc:format>
        <dc:type
           rdf:resource="http://purl.org/dc/dcmitype/StillImage" />
        <dc:title></dc:title>
      </cc:Work>
    </rdf:RDF>
  </metadata>
  <g
     inkscape:label="Layer 1"
     inkscape:groupmode="layer"
     id="layer1"
     transform="translate(0,-982.36216)">
    <path
       style="fill:#ffffff"
       d="m 27.657086,1041.4145 c -7.25528,-2.4125 -12.036409,-6.6663 -15.298242,-13.6109 -4.5929095,-9.7787 -2.3591465,-21.1023 5.658726,-28.68526 5.373232,-5.0818 10.746097,-6.9978 18.469204,-6.5864 9.801026,0.5222 17.108917,5.3949 21.386459,14.25986 1.77874,3.6863 2.095579,5.2648 2.124864,10.5866 0.02943,5.3102 -0.267172,6.8981 -1.963502,10.5185 -2.357306,5.0311 -6.685177,9.4258 -11.869528,12.053 -4.534559,2.2977 -13.797784,3.0308 -18.507981,1.4646 z m 13.579765,-10.0391 c 2.901362,-1.4801 4.875606,-3.8009 6.561267,-7.7127 1.560868,-3.6224 0.09021,-4.0786 -13.107597,-4.0656 -6.296597,0.01 -11.918165,0.3087 -12.492389,0.6721 -0.892534,0.565 -0.863102,1.1346 0.202494,3.9248 2.87708,7.5336 11.615454,10.8652 18.836225,7.1814 z m -14.315572,-21.3651 c 0,-1.3381 -0.445605,-1.8927 -1.658877,-2.065 -2.001838,-0.2843 -2.954046,1.6103 -1.618335,3.2197 1.378609,1.6612 3.277212,0.9922 3.277212,-1.1547 z m 19.866796,-0.7257 c 0,-2.414 -2.946025,-3.0455 -3.663363,-0.7854 -0.644126,2.0296 0.153931,3.1249 2.077184,2.8509 1.14109,-0.1626 1.586179,-0.7422 1.586179,-2.0655 z"
       id="path4160-3-9"
       inkscape:connector-curvature="0"
       sodipodi:nodetypes="sssssccsssccsssscssssss" />
  </g>
</svg>
