<?xml version="1.0" encoding="UTF-8"?>
<svg width="180px" height="180px" viewBox="0 0 180 180" version="1.1" xmlns="http://www.w3.org/2000/svg" xmlns:xlink="http://www.w3.org/1999/xlink" style="background: #F5B946;">
    <!-- Generator: Sketch 41.2 (35397) - http://www.bohemiancoding.com/sketch -->
    <title>cat-groceries-huge@3x</title>
    <desc>Created with Sketch.</desc>
    <defs></defs>
    <g id="Assets" stroke="none" stroke-width="1" fill="none" fill-rule="evenodd">
        <g id="-Category-assets-spotlight" transform="translate(-1395.000000, -310.000000)" fill="#FFFFFF">
            <g id="Category-Icon_Groceries-116px" transform="translate(1395.000000, 310.000000)">
                <g id="Layer_1_9_">
                    <g id="Group">
                        <g id="XMLID_2_" transform="translate(35.650000, 37.200000)">
                            <path d="M31,77.5 C60.45,74.71 79.515,53.165 84.94,26.815 C65.875,67.115 27.9,68.2 2.48,51.46 L0,58.125 C0,58.125 4.65,79.98 31,77.5 L31,77.5 Z" id="XMLID_4_"></path>
                            <path d="M97.65,18.6 L97.65,9.455 L96.1,0 L91.45,0 L91.45,11.47 L91.45,14.415 L91.45,17.36 C91.295,18.755 90.83,23.095 90.675,24.49 C85.25,58.9 62.31,78.895 33.635,82.77 C30.38,83.235 17.67,84.165 6.82,78.895 L4.65,83.7 C4.65,83.7 19.995,107.88 54.25,105.4 C91.45,102.61 124.155,38.595 97.65,18.6 L97.65,18.6 Z" id="XMLID_3_"></path>
                        </g>
                    </g>
                </g>
            </g>
        </g>
    </g>
</svg>