<?xml version="1.0" encoding="UTF-8"?>
<svg width="180px" height="180px" viewBox="0 0 180 180" version="1.1" xmlns="http://www.w3.org/2000/svg" xmlns:xlink="http://www.w3.org/1999/xlink" style="background: #B982FF;">
    <!-- Generator: Sketch 41.2 (35397) - http://www.bohemiancoding.com/sketch -->
    <title>cat-holidays-huge@3x</title>
    <desc>Created with Sketch.</desc>
    <defs></defs>
    <g id="Assets" stroke="none" stroke-width="1" fill="none" fill-rule="evenodd">
        <g id="-Category-assets-spotlight" transform="translate(-1085.000000, -310.000000)" fill="#FFFFFF">
            <g id="Category-Icon_Holiday-116px" transform="translate(1085.000000, 310.000000)">
                <g id="Layer_1_5_">
                    <g id="Group">
                        <g transform="translate(27.900000, 40.300000)" id="Shape">
                            <path d="M0,27.9 L0,89.59 C0,94.86 4.34,99.2 9.61,99.2 L15.5,99.2 L15.5,18.6 L9.3,18.6 C4.03,18.6 0,22.63 0,27.9 L0,27.9 Z"></path>
                            <path d="M124,27.9 L124,89.59 C124,94.86 119.66,99.2 114.39,99.2 L108.5,99.2 L108.5,18.6 L114.7,18.6 C119.97,18.6 124,22.63 124,27.9 L124,27.9 Z"></path>
                            <path d="M82.15,4.65 C82.15,2.325 79.825,0 77.5,0 L46.5,0 C44.175,0 41.85,2.325 41.85,4.65 L41.85,18.6 L23.25,18.6 L23.405,99.2 L100.595,99.2 L100.75,18.6 L82.15,18.6 L82.15,4.65 L82.15,4.65 Z M74.4,18.6 L49.6,18.6 L49.6,7.75 L74.4,7.75 L74.4,18.6 L74.4,18.6 Z"></path>
                        </g>
                    </g>
                </g>
            </g>
        </g>
    </g>
</svg>