<svg xmlns="http://www.w3.org/2000/svg" width="327.504" height="319.333" viewBox="0 0 327.504 319.333"><title>logo</title><g id="Layer_3" data-name="Layer 3"><path d="M275.456,146.734a10.344,10.344,0,0,1-3.03,7.314L226.1,200.374a4.138,4.138,0,0,1-7.063-2.926V93.643L274.812,38.18h.643Z" style="fill:#e34b5f"/><path d="M238.487,1.212a4.138,4.138,0,0,0-5.852,0L163.752,70.1H162.8v77.746l.956,2.042L219.037,94.6,275.456,38.18Z" style="fill:#e7ce9c"/><path d="M52.048,146.734a10.344,10.344,0,0,0,3.03,7.314L101.4,200.374a4.138,4.138,0,0,0,7.063-2.926V93.643L52.691,38.18h-.643Z" style="fill:#1e7889"/><path d="M94.868,1.212a4.138,4.138,0,0,0-5.852,0L52.048,38.18,108.467,94.6l55.285,55.285V70.1Z" style="fill:#97baa6"/><path d="M0,317.875v-55.9H14.885v7.495c3.435-5.725,8.432-8.536,15.2-8.536s11.867,2.915,15.51,8.952c5.829-6.141,10.305-8.952,17.28-8.952,12.6,0,19.674,7.078,19.674,20.09v36.849H66.516V287.584c0-7.807-1.666-11.346-7.807-11.346-6.246,0-9.577,3.851-9.577,11.346v30.291H33V287.584c0-7.807-1.666-11.346-7.807-11.346-6.246,0-9.577,3.851-9.577,11.346v30.291Z" style="fill:#14233c"/><path d="M100.332,269.263a29.508,29.508,0,0,1,50.486,20.3c0,8.431-2.81,15.406-8.432,21.027a28.979,28.979,0,0,1-21.235,8.744,27.623,27.623,0,0,1-21.131-8.952A29.212,29.212,0,0,1,91.8,289.77,28.652,28.652,0,0,1,100.332,269.263Zm20.923,34.455a13.491,13.491,0,0,0,13.22-13.74c0-7.7-5.933-13.845-13.22-13.845s-13.22,6.142-13.22,13.845C108.035,297.577,114.073,303.719,121.255,303.719Z" style="fill:#14233c"/><path d="M160.068,317.875v-55.9h15.614l-.208,7.495c3.435-5.621,8.64-8.536,16.03-8.536,11.555,0,19.049,7.286,19.049,20.09v36.849H194.107V287.584c0-7.807-1.665-11.346-8.015-11.346-6.454,0-9.889,3.851-9.889,11.346v30.291Z" style="fill:#14233c"/><path d="M277.018,269.263a29.508,29.508,0,0,1,50.486,20.3c0,8.431-2.81,15.406-8.431,21.027a28.98,28.98,0,0,1-21.235,8.744,27.623,27.623,0,0,1-21.131-8.952,29.213,29.213,0,0,1-8.223-20.611A28.652,28.652,0,0,1,277.018,269.263Zm20.923,34.455a13.491,13.491,0,0,0,13.22-13.74c0-7.7-5.934-13.845-13.22-13.845s-13.22,6.142-13.22,13.845C284.721,297.577,290.758,303.719,297.941,303.719Z" style="fill:#14233c"/><path d="M220.919,317.875V306.217l23-29.771h-23V261.977h41.533V275.2l-20.3,28.21h20.715v14.469Z" style="fill:#14233c"/></g></svg>