<?xml version="1.0" encoding="UTF-8" standalone="no"?>
<svg
   xmlns:dc="http://purl.org/dc/elements/1.1/"
   xmlns:cc="http://creativecommons.org/ns#"
   xmlns:rdf="http://www.w3.org/1999/02/22-rdf-syntax-ns#"
   xmlns:svg="http://www.w3.org/2000/svg"
   xmlns="http://www.w3.org/2000/svg"
   xmlns:sodipodi="http://sodipodi.sourceforge.net/DTD/sodipodi-0.dtd"
   xmlns:inkscape="http://www.inkscape.org/namespaces/inkscape"
   viewBox="0 0 70 69.999999"
   height="70"
   width="70"
   xml:space="preserve"
   version="1.1"
   id="svg2"
   inkscape:version="0.91 r"
   sodipodi:docname="monzo.svg"><sodipodi:namedview
     pagecolor="#ffffff"
     bordercolor="#666666"
     borderopacity="1"
     objecttolerance="10"
     gridtolerance="10"
     guidetolerance="10"
     inkscape:pageopacity="0"
     inkscape:pageshadow="2"
     inkscape:window-width="3066"
     inkscape:window-height="1694"
     id="namedview10896"
     showgrid="false"
     inkscape:zoom="1.2101935"
     inkscape:cx="-18.162919"
     inkscape:cy="97.505066"
     inkscape:window-x="130"
     inkscape:window-y="48"
     inkscape:window-maximized="0"
     inkscape:current-layer="g12" /><metadata
     id="metadata8"><rdf:RDF><cc:Work
         rdf:about=""><dc:format>image/svg+xml</dc:format><dc:type
           rdf:resource="http://purl.org/dc/dcmitype/StillImage" /><dc:title></dc:title></cc:Work></rdf:RDF></metadata><defs
     id="defs6" /><g
     transform="matrix(1.25,0,0,-1.25,0,69.999998)"
     id="g10"><g
       transform="scale(0.1,0.1)"
       id="g12"><g
         id="g11438"
         transform="matrix(0.36648643,0,0,0.36648643,-13.189144,-111.27712)"><path
           inkscape:connector-curvature="0"
           d="m 1345.7228,843.22146 c 0,-13.40076 -5.3251,-26.25434 -14.8029,-35.73209 L 1104.5972,581.16664 c -12.7315,-12.73145 -34.5058,-3.71293 -34.5058,14.29479 l 0,507.13277 272.4852,270.9609 3.1462,0 0,-530.33364"
           style="fill:#e83860;fill-opacity:1;fill-rule:nonzero;stroke:none"
           id="path14" /><path
           inkscape:connector-curvature="0"
           d="m 1165.1131,1554.1599 c -7.8949,7.8949 -20.6898,7.8949 -28.5847,0 L 800,1217.6364 l -4.67536,0 0,-379.82801 4.67536,-9.97606 270.0914,270.09137 275.6314,275.6314 -180.6097,180.6048"
           style="fill:#dfc586;fill-opacity:1;fill-rule:nonzero;stroke:none"
           id="path16" /><path
           inkscape:connector-curvature="0"
           d="m 254.2772,843.22146 c 0,-13.40076 5.32464,-26.25434 14.80141,-35.73209 L 495.39792,581.16664 c 12.73633,-12.73145 34.51072,-3.71293 34.51072,14.29479 l 0,507.13277 -272.4901,270.9609 -3.14134,0 0,-530.33364"
           style="fill:#327787;fill-opacity:1;fill-rule:nonzero;stroke:none"
           id="path18" /><path
           inkscape:connector-curvature="0"
           d="m 463.47159,1554.1599 c -7.89486,7.8949 -20.69275,7.8949 -28.58762,0 L 254.2772,1373.5551 529.90864,1097.9237 800,827.83233 l 0,389.80407 -336.52841,336.5235"
           style="fill:#8abb9c;fill-opacity:1;fill-rule:nonzero;stroke:none"
           id="path20" /></g></g></g></svg>