<?xml version="1.0" encoding="UTF-8"?>
<svg width="180px" height="180px" viewBox="0 0 180 180" version="1.1" xmlns="http://www.w3.org/2000/svg" xmlns:xlink="http://www.w3.org/1999/xlink" style="background: #14233C;">
    <!-- Generator: Sketch 41.2 (35397) - http://www.bohemiancoding.com/sketch -->
    <title>monzo-huge@3x</title>
    <desc>Created with Sketch.</desc>
    <defs></defs>
    <g id="Assets" stroke="none" stroke-width="1" fill="none" fill-rule="evenodd">
        <g id="-Category-assets-spotlight" transform="translate(-3254.000000, -309.000000)">
            <g id="Monzo-116px" transform="translate(3255.000000, 310.000000)">
                <g id="Layer_1_13_">
                    <g id="Group">
                        <g transform="translate(24.800000, 30.450000)" id="Page-1">
                            <g>
                                <g id="Group-9">
                                    <path d="M130.312656,86.2628433 C130.312656,87.8675056 129.676887,89.4063876 128.545548,90.5408151 L101.52386,117.636266 C100.003412,119.160864 97.403731,118.08094 97.403731,115.925227 L97.403731,55.2108045 L129.937417,22.7713662 L130.312656,22.7713662 L130.312656,86.2628433 Z" id="Fill-1" fill="#E64B5F"></path>
                                    <path d="M108.749099,1.1489832 C107.806691,0.204002862 106.278371,0.204002862 105.335963,1.1489832 L65.1561782,41.4384491 L64.5983807,41.4384491 L64.5983807,86.9110231 L65.1561782,88.1055925 L97.4038434,55.7698991 L130.312769,22.7715165 L108.749099,1.1489832 Z" id="Fill-3" fill="#EBD19F"></path>
                                    <path d="M1.45189006e-07,86.2628433 C1.45189006e-07,87.8675056 0.635769285,89.4063876 1.76710847,90.5408151 L28.7887964,117.636266 C30.3092443,119.160864 32.9089253,118.08094 32.9089253,115.925227 L32.9089253,55.2108045 L0.375238889,22.7713662 L1.45189006e-07,22.7713662 L1.45189006e-07,86.2628433 Z" id="Fill-5" fill="#1E788C"></path>
                                    <path d="M24.9767306,1.1489832 C24.0343228,0.204002862 22.5060028,0.204002862 21.563595,1.1489832 L-7.48275861e-05,22.7715165 L32.9088503,55.7702749 L65.1565156,88.1055925 L65.1565156,41.4384491 L24.9767306,1.1489832 Z" id="Fill-7" fill="#9ABDA9"></path>
                                </g>
                            </g>
                        </g>
                    </g>
                </g>
            </g>
        </g>
    </g>
</svg>