<?xml version="1.0" encoding="UTF-8"?>
<svg width="180px" height="180px" viewBox="0 0 180 180" version="1.1" xmlns="http://www.w3.org/2000/svg" xmlns:xlink="http://www.w3.org/1999/xlink" style="background: #F09696;">
    <!-- Generator: Sketch 41.2 (35397) - http://www.bohemiancoding.com/sketch -->
    <title>cat-shopping-huge@3x</title>
    <desc>Created with Sketch.</desc>
    <defs></defs>
    <g id="Assets" stroke="none" stroke-width="1" fill="none" fill-rule="evenodd">
        <g id="-Category-assets-spotlight" transform="translate(-465.000000, -310.000000)" fill="#FFFFFF">
            <g id="Category-Icon_Shopping-116px" transform="translate(465.000000, 310.000000)">
                <g id="Layer_1_7_">
                    <g id="Group">
                        <path d="M124,68.2 L108.5,68.2 L108.5,52.7 C108.5,44.95 100.75,37.2 93,37.2 L86.955,37.2 C79.05,37.2 71.3,44.95 71.3,52.7 L71.3,68.2 L54.25,68.2 L51.15,139.5 L127.1,139.5 L124,68.2 L124,68.2 Z M77.5,68.2 L77.5,52.7 C77.5,47.895 80.445,43.4 85.25,43.4 L94.55,43.4 C99.355,43.4 102.3,47.895 102.3,52.7 L102.3,68.2 L100.75,68.2 L80.6,68.2 L77.5,68.2 L77.5,68.2 Z" id="Shape"></path>
                    </g>
                </g>
            </g>
        </g>
    </g>
</svg>