<?xml version="1.0" encoding="UTF-8"?>
<svg width="180px" height="180px" viewBox="0 0 180 180" version="1.1" xmlns="http://www.w3.org/2000/svg" xmlns:xlink="http://www.w3.org/1999/xlink" style="background: #1E788C;">
    <!-- Generator: Sketch 41.2 (35397) - http://www.bohemiancoding.com/sketch -->
    <title>cat-transport-huge@3x</title>
    <desc>Created with Sketch.</desc>
    <defs></defs>
    <g id="Assets" stroke="none" stroke-width="1" fill="none" fill-rule="evenodd">
        <g id="-Category-assets-spotlight" transform="translate(-155.000000, -310.000000)" fill="#FFFFFF">
            <g id="Category-Icon_Transport-116px" transform="translate(155.000000, 310.000000)">
                <g id="Layer_1_15_">
                    <g id="Group">
                        <path d="M152.675,76.725 C152.675,66.185 139.5,72.85 139.5,72.85 C138.415,69.75 136.71,63.55 133.455,55.49 C130.82,49.29 127.72,41.85 116.25,41.85 L89.9,41.85 L63.55,41.85 C52.08,41.85 48.98,49.29 46.345,55.49 C43.09,63.55 41.385,69.75 40.3,72.85 C40.3,72.85 27.125,66.185 27.125,76.725 C27.125,80.445 35.495,81.995 40.145,82.46 C39.06,85.87 37.2,90.055 37.2,93 L37.2,122.45 L37.2,130.2 C37.2,133.3 40.61,136.4 43.4,136.4 L60.45,136.4 C63.24,136.4 65.1,133.3 65.1,130.2 L65.1,120.9 L89.9,120.9 L114.7,120.9 L114.7,130.2 C114.7,133.3 116.56,136.4 119.35,136.4 L136.4,136.4 C139.19,136.4 142.6,133.3 142.6,130.2 L142.6,122.45 L142.6,93 C142.6,90.055 140.74,85.87 139.655,82.46 C144.305,81.995 152.675,80.445 152.675,76.725 L152.675,76.725 Z M66.495,102.92 L51.925,102.92 C50.685,102.92 48.98,101.215 48.98,99.975 L48.98,95.635 C48.98,92.225 53.165,89.9 56.265,91.295 C56.42,91.295 67.89,98.58 67.89,98.58 C70.525,99.665 69.285,102.92 66.495,102.92 L66.495,102.92 Z M130.82,99.975 C130.82,101.215 129.115,102.92 127.875,102.92 L113.305,102.92 C110.515,102.92 109.43,99.665 111.91,98.58 C111.91,98.58 123.38,91.295 123.535,91.295 C126.635,90.055 130.82,92.38 130.82,95.635 L130.82,99.975 L130.82,99.975 Z M89.9,79.05 C75.485,78.895 60.915,76.26 48.98,73.78 C50.375,69.75 53.165,63.085 54.87,59.055 C57.195,53.63 58.9,49.6 63.55,49.6 L89.9,49.6 L116.25,49.6 C120.9,49.6 122.605,53.63 124.93,59.055 C126.635,63.085 129.27,69.75 130.82,73.78 C118.885,76.26 104.315,78.895 89.9,79.05 L89.9,79.05 Z" id="Shape"></path>
                    </g>
                </g>
            </g>
        </g>
    </g>
</svg>