<?xml version="1.0" encoding="UTF-8" standalone="no"?>
<!-- Created with Inkscape (http://www.inkscape.org/) -->

<svg
   xmlns:dc="http://purl.org/dc/elements/1.1/"
   xmlns:cc="http://creativecommons.org/ns#"
   xmlns:rdf="http://www.w3.org/1999/02/22-rdf-syntax-ns#"
   xmlns:svg="http://www.w3.org/2000/svg"
   xmlns="http://www.w3.org/2000/svg"
   xmlns:sodipodi="http://sodipodi.sourceforge.net/DTD/sodipodi-0.dtd"
   xmlns:inkscape="http://www.inkscape.org/namespaces/inkscape"
   width="70"
   height="70"
   viewBox="0 0 69.999998 69.999998"
   id="svg4414"
   version="1.1"
   inkscape:version="0.91 r"
   sodipodi:docname="transport.svg">
  <defs
     id="defs4416" />
  <sodipodi:namedview
     id="base"
     pagecolor="#ffffff"
     bordercolor="#666666"
     borderopacity="1.0"
     inkscape:pageopacity="0.0"
     inkscape:pageshadow="2"
     inkscape:zoom="1.979899"
     inkscape:cx="402.62044"
     inkscape:cy="72.630532"
     inkscape:document-units="px"
     inkscape:current-layer="layer1"
     showgrid="false"
     fit-margin-top="0"
     fit-margin-left="0"
     fit-margin-right="0"
     fit-margin-bottom="0"
     inkscape:window-width="3070"
     inkscape:window-height="1752"
     inkscape:window-x="130"
     inkscape:window-y="48"
     inkscape:window-maximized="1"
     units="px" />
  <metadata
     id="metadata4419">
    <rdf:RDF>
      <cc:Work
         rdf:about="">
        <dc:format>image/svg+xml</dc:format>
        <dc:type
           rdf:resource="http://purl.org/dc/dcmitype/StillImage" />
        <dc:title></dc:title>
      </cc:Work>
    </rdf:RDF>
  </metadata>
  <g
     inkscape:label="Layer 1"
     inkscape:groupmode="layer"
     id="layer1"
     transform="translate(923.3091,-130.00506)">
    <path
       style="fill:#ffffff"
       d="m -909.02779,182.94037 c -0.55102,-0.66395 -0.69867,-3.60144 -0.53922,-10.73109 l 0.21958,-9.81689 -1.85405,-0.54772 c -1.39375,-0.41173 -1.90263,-0.96966 -2.04965,-2.24726 -0.20265,-1.76141 -0.0346,-1.8643 3.19904,-1.95758 1.60314,-0.0462 1.91054,-0.43671 3.30652,-4.2002 0.84643,-2.28207 2.24432,-4.85457 3.1064,-5.71666 l 1.56747,-1.56743 13.37457,0 c 14.90596,0 15.18542,0.0681 17.30152,4.21592 0.63977,1.25412 1.48385,3.47068 1.87562,4.92571 0.68834,2.55622 0.78049,2.63272 2.7307,2.26686 4.07026,-0.76359 4.85416,3.31377 0.82876,4.31086 -1.79713,0.44515 -2.23122,0.80015 -1.8894,1.54505 0.79768,1.73823 1.01034,17.71925 0.25463,19.13134 -0.61864,1.15597 -1.24648,1.3033 -5.55375,1.3033 -5.34703,0 -5.60653,-0.18827 -5.60653,-4.06766 l 0,-2.11251 -9.57927,0 -9.57926,0 0,1.89468 c 0,3.7063 -0.78624,4.28549 -5.81727,4.28549 -3.25127,0 -4.7528,-0.25917 -5.29641,-0.91421 z m 11.94114,-13.09763 c 0.47118,-0.4712 -4.44373,-3.90395 -5.5954,-3.90801 -1.03518,-0.004 -2.10676,2.16909 -1.65295,3.35168 0.27329,0.71218 1.23579,0.97179 3.60292,0.97179 1.77649,0 3.41689,-0.18695 3.64543,-0.41546 z m 24.51124,-1.45798 c 0,-1.08681 -0.3854,-2.02134 -0.91782,-2.22565 -0.92072,-0.35331 -6.49523,2.76593 -6.49733,3.63558 -5.6e-4,0.25493 1.66759,0.46351 3.70705,0.46351 l 3.7081,0 z m -7.62825,-8.3495 c 3.99715,-0.52398 7.38506,-1.0702 7.52869,-1.21383 0.49509,-0.49512 -2.57472,-7.24394 -3.82479,-8.40859 -1.12565,-1.04868 -2.31212,-1.16722 -11.68324,-1.16722 -6.13388,0 -10.93223,0.26857 -11.64863,0.65197 -1.16348,0.62267 -4.26265,6.67347 -4.26265,8.32235 0,0.5186 1.73576,1.01476 5.09864,1.4574 2.80425,0.36911 5.79391,0.77712 6.64368,0.9067 3.09905,0.47254 5.0188,0.38582 12.1483,-0.54878 z"
       id="path4160-3-7"
       inkscape:connector-curvature="0"
       sodipodi:nodetypes="cscscccccsccsscssscccsscccsscsscscssccssssss" />
  </g>
</svg>
