<svg width="180" height="180" xmlns="http://www.w3.org/2000/svg"><g fill="#FFF" fill-rule="evenodd"><path d="M137.95 48.2c0-4.34-3.56-7.9-7.9-7.9h-80.3c-4.34 0-7.9 3.56-7.9 7.9 0 4.03 3.87 7.3 7.75 7.6v83.7h80.6V55.8c4.03-.3 7.75-3.56 7.75-7.6zM114.7 124H65.1V51.15h49.6V124zM55.8 51.15H62v75.95h55.8V51.15h6.2v82.15H55.8V51.15z"/><path d="M82.93 99.97c0 3.73-2.95 6.67-5.74 8.53l3.1 4.8c2-1.55 4.02-2 5.88-2 2.33 0 3.57.45 5.12 1.08 1.4.46 2.94.92 5.58.92 2.63 0 5.58-.92 7.9-3.25l-3.1-5.1c-1.86 2-3.1 2.16-4.5 2.16s-2.63-.3-4.03-.6c-1.4-.33-2.63-.64-4.03-.64-.93 0-1.86.16-3.4 1.25l-.16-.15c2.32-1.86 4.2-3.88 4.2-7.13-.02-1.1-.17-2.17-.48-3.1h5.42v-4.34h-6.82c-2-3.72-2.16-4.96-2.16-6.5 0-2.8 2-4.66 4.96-4.66 5.27 0 5.42 4.8 5.58 6.82h6.97c0-8.22-4.65-12.7-12.4-12.7-8.52 0-13.02 4.8-13.02 10.22 0 2.94 1.25 5.73 2.34 6.97h-3.26v4.34H82c.46.78.93 1.86.93 3.1z"/></g></svg>