<svg width="180" height="180" xmlns="http://www.w3.org/2000/svg"><path d="M89.9 37.2c-29.14 0-52.7 23.56-52.7 52.7 0 29.14 23.56 52.7 52.7 52.7 29.14 0 52.7-23.56 52.7-52.7 0-29.14-23.56-52.7-52.7-52.7zM69.13 68.5c3.1 0 5.58 2.5 5.58 5.6 0 3.1-2.47 5.57-5.57 5.57s-5.58-2.48-5.58-5.58 2.48-5.6 5.58-5.6zm20.3 55.03c-15.96 0-28.83-12.86-28.83-28.83h57.66c0 15.97-12.86 28.83-28.83 28.83zm21.24-44.95c-3.1 0-5.58-2.47-5.58-5.58 0-3.1 2.47-5.58 5.57-5.58s5.58 2.48 5.58 5.58-2.48 5.58-5.58 5.58z" fill="#FFF" fill-rule="evenodd"/></svg>